<mxfile host="Electron" agent="Mozilla/5.0 (X11; Linux x86_64) AppleWebKit/537.36 (KHTML, like Gecko) draw.io/24.7.5 Chrome/126.0.6478.183 Electron/31.3.0 Safari/537.36" version="24.7.5">
  <diagram name="Page-1" id="Bs0oBPp0F4ywnDSM8MxO">
    <mxGraphModel dx="1430" dy="824" grid="1" gridSize="10" guides="1" tooltips="1" connect="1" arrows="1" fold="1" page="1" pageScale="1" pageWidth="850" pageHeight="1100" math="0" shadow="0">
      <root>
        <mxCell id="0" />
        <mxCell id="1" parent="0" />
        <mxCell id="6z1kEKujrXvAPlFFlpxd-1" value="" style="rounded=0;whiteSpace=wrap;html=1;" vertex="1" parent="1">
          <mxGeometry x="200" y="360" width="640" height="40" as="geometry" />
        </mxCell>
        <mxCell id="6z1kEKujrXvAPlFFlpxd-39" style="edgeStyle=orthogonalEdgeStyle;rounded=0;orthogonalLoop=1;jettySize=auto;html=1;exitX=0.5;exitY=1;exitDx=0;exitDy=0;entryX=0.5;entryY=0;entryDx=0;entryDy=0;" edge="1" parent="1" source="6z1kEKujrXvAPlFFlpxd-2" target="6z1kEKujrXvAPlFFlpxd-33">
          <mxGeometry relative="1" as="geometry" />
        </mxCell>
        <mxCell id="6z1kEKujrXvAPlFFlpxd-2" value="Offset" style="rounded=0;whiteSpace=wrap;html=1;fontSize=16;" vertex="1" parent="1">
          <mxGeometry x="720" y="360" width="120" height="40" as="geometry" />
        </mxCell>
        <mxCell id="6z1kEKujrXvAPlFFlpxd-31" style="edgeStyle=orthogonalEdgeStyle;rounded=0;orthogonalLoop=1;jettySize=auto;html=1;exitX=0.25;exitY=1;exitDx=0;exitDy=0;entryX=0;entryY=0.5;entryDx=0;entryDy=0;" edge="1" parent="1" source="6z1kEKujrXvAPlFFlpxd-3" target="6z1kEKujrXvAPlFFlpxd-29">
          <mxGeometry relative="1" as="geometry">
            <Array as="points">
              <mxPoint x="580" y="400" />
              <mxPoint x="580" y="605" />
            </Array>
          </mxGeometry>
        </mxCell>
        <mxCell id="6z1kEKujrXvAPlFFlpxd-3" value="VPN[0]" style="rounded=0;whiteSpace=wrap;html=1;fontSize=16;" vertex="1" parent="1">
          <mxGeometry x="570" y="360" width="150" height="40" as="geometry" />
        </mxCell>
        <mxCell id="6z1kEKujrXvAPlFFlpxd-25" style="edgeStyle=orthogonalEdgeStyle;rounded=0;orthogonalLoop=1;jettySize=auto;html=1;exitX=0.25;exitY=1;exitDx=0;exitDy=0;entryX=0;entryY=0.5;entryDx=0;entryDy=0;" edge="1" parent="1" source="6z1kEKujrXvAPlFFlpxd-5" target="6z1kEKujrXvAPlFFlpxd-24">
          <mxGeometry relative="1" as="geometry">
            <Array as="points">
              <mxPoint x="430" y="400" />
              <mxPoint x="430" y="555" />
            </Array>
          </mxGeometry>
        </mxCell>
        <mxCell id="6z1kEKujrXvAPlFFlpxd-5" value="VPN[1]" style="rounded=0;whiteSpace=wrap;html=1;fontSize=16;" vertex="1" parent="1">
          <mxGeometry x="420" y="360" width="150" height="40" as="geometry" />
        </mxCell>
        <mxCell id="6z1kEKujrXvAPlFFlpxd-6" value="VPN[2]" style="rounded=0;whiteSpace=wrap;html=1;fontSize=16;" vertex="1" parent="1">
          <mxGeometry x="270" y="360" width="150" height="40" as="geometry" />
        </mxCell>
        <mxCell id="6z1kEKujrXvAPlFFlpxd-21" style="edgeStyle=orthogonalEdgeStyle;rounded=0;orthogonalLoop=1;jettySize=auto;html=1;exitX=0.25;exitY=1;exitDx=0;exitDy=0;entryX=0;entryY=0.5;entryDx=0;entryDy=0;" edge="1" parent="1" target="6z1kEKujrXvAPlFFlpxd-17">
          <mxGeometry relative="1" as="geometry">
            <mxPoint x="292.5" y="400" as="sourcePoint" />
            <Array as="points">
              <mxPoint x="280" y="400" />
              <mxPoint x="280" y="503" />
            </Array>
          </mxGeometry>
        </mxCell>
        <mxCell id="6z1kEKujrXvAPlFFlpxd-9" value="Unused" style="rounded=0;whiteSpace=wrap;html=1;fontSize=16;" vertex="1" parent="1">
          <mxGeometry x="200" y="360" width="70" height="40" as="geometry" />
        </mxCell>
        <mxCell id="6z1kEKujrXvAPlFFlpxd-12" style="rounded=0;orthogonalLoop=1;jettySize=auto;html=1;exitX=1;exitY=0.5;exitDx=0;exitDy=0;entryX=1;entryY=0;entryDx=0;entryDy=0;dashed=1;endArrow=none;endFill=0;" edge="1" parent="1" source="6z1kEKujrXvAPlFFlpxd-10" target="6z1kEKujrXvAPlFFlpxd-3">
          <mxGeometry relative="1" as="geometry" />
        </mxCell>
        <mxCell id="6z1kEKujrXvAPlFFlpxd-14" style="rounded=0;orthogonalLoop=1;jettySize=auto;html=1;exitX=0;exitY=0.5;exitDx=0;exitDy=0;entryX=1;entryY=0;entryDx=0;entryDy=0;dashed=1;endArrow=none;endFill=0;" edge="1" parent="1" source="6z1kEKujrXvAPlFFlpxd-10" target="6z1kEKujrXvAPlFFlpxd-9">
          <mxGeometry relative="1" as="geometry" />
        </mxCell>
        <mxCell id="6z1kEKujrXvAPlFFlpxd-10" value="VPN" style="text;html=1;align=center;verticalAlign=middle;whiteSpace=wrap;rounded=0;fontSize=16;" vertex="1" parent="1">
          <mxGeometry x="465" y="290" width="60" height="30" as="geometry" />
        </mxCell>
        <mxCell id="6z1kEKujrXvAPlFFlpxd-15" value="" style="rounded=0;whiteSpace=wrap;html=1;" vertex="1" parent="1">
          <mxGeometry x="300" y="437.5" width="90" height="135" as="geometry" />
        </mxCell>
        <mxCell id="6z1kEKujrXvAPlFFlpxd-16" value="&lt;font style=&quot;font-size: 16px;&quot;&gt;Page Table&lt;/font&gt;" style="text;html=1;align=center;verticalAlign=middle;whiteSpace=wrap;rounded=0;" vertex="1" parent="1">
          <mxGeometry x="310" y="407.5" width="90" height="30" as="geometry" />
        </mxCell>
        <mxCell id="6z1kEKujrXvAPlFFlpxd-17" value="&lt;font style=&quot;font-size: 16px;&quot;&gt;PTE&lt;/font&gt;" style="rounded=0;whiteSpace=wrap;html=1;" vertex="1" parent="1">
          <mxGeometry x="300" y="487.5" width="90" height="30" as="geometry" />
        </mxCell>
        <mxCell id="6z1kEKujrXvAPlFFlpxd-18" value="&lt;font style=&quot;font-size: 16px;&quot;&gt;SATP&lt;/font&gt;" style="rounded=0;whiteSpace=wrap;html=1;" vertex="1" parent="1">
          <mxGeometry x="130" y="420" width="70" height="40" as="geometry" />
        </mxCell>
        <mxCell id="6z1kEKujrXvAPlFFlpxd-22" value="" style="rounded=0;whiteSpace=wrap;html=1;" vertex="1" parent="1">
          <mxGeometry x="450" y="490" width="90" height="135" as="geometry" />
        </mxCell>
        <mxCell id="6z1kEKujrXvAPlFFlpxd-23" value="&lt;font style=&quot;font-size: 16px;&quot;&gt;Page Table&lt;/font&gt;" style="text;html=1;align=center;verticalAlign=middle;whiteSpace=wrap;rounded=0;" vertex="1" parent="1">
          <mxGeometry x="450" y="460" width="90" height="30" as="geometry" />
        </mxCell>
        <mxCell id="6z1kEKujrXvAPlFFlpxd-24" value="&lt;font style=&quot;font-size: 16px;&quot;&gt;PTE&lt;/font&gt;" style="rounded=0;whiteSpace=wrap;html=1;" vertex="1" parent="1">
          <mxGeometry x="450" y="540" width="90" height="30" as="geometry" />
        </mxCell>
        <mxCell id="6z1kEKujrXvAPlFFlpxd-26" style="edgeStyle=orthogonalEdgeStyle;rounded=0;orthogonalLoop=1;jettySize=auto;html=1;exitX=1;exitY=0.5;exitDx=0;exitDy=0;entryX=-0.015;entryY=0.096;entryDx=0;entryDy=0;entryPerimeter=0;" edge="1" parent="1" source="6z1kEKujrXvAPlFFlpxd-17">
          <mxGeometry relative="1" as="geometry">
            <mxPoint x="391.35" y="502.25" as="sourcePoint" />
            <mxPoint x="450" y="502.71000000000004" as="targetPoint" />
          </mxGeometry>
        </mxCell>
        <mxCell id="6z1kEKujrXvAPlFFlpxd-27" value="" style="rounded=0;whiteSpace=wrap;html=1;" vertex="1" parent="1">
          <mxGeometry x="600" y="540" width="90" height="135" as="geometry" />
        </mxCell>
        <mxCell id="6z1kEKujrXvAPlFFlpxd-28" value="&lt;font style=&quot;font-size: 16px;&quot;&gt;Page Table&lt;/font&gt;" style="text;html=1;align=center;verticalAlign=middle;whiteSpace=wrap;rounded=0;" vertex="1" parent="1">
          <mxGeometry x="600" y="510" width="90" height="30" as="geometry" />
        </mxCell>
        <mxCell id="6z1kEKujrXvAPlFFlpxd-38" style="edgeStyle=orthogonalEdgeStyle;rounded=0;orthogonalLoop=1;jettySize=auto;html=1;exitX=1;exitY=0.5;exitDx=0;exitDy=0;entryX=0.5;entryY=0;entryDx=0;entryDy=0;" edge="1" parent="1" source="6z1kEKujrXvAPlFFlpxd-29" target="6z1kEKujrXvAPlFFlpxd-36">
          <mxGeometry relative="1" as="geometry">
            <Array as="points">
              <mxPoint x="710" y="605" />
              <mxPoint x="710" y="700" />
              <mxPoint x="495" y="700" />
            </Array>
          </mxGeometry>
        </mxCell>
        <mxCell id="6z1kEKujrXvAPlFFlpxd-29" value="&lt;font style=&quot;font-size: 16px;&quot;&gt;PTE&lt;/font&gt;" style="rounded=0;whiteSpace=wrap;html=1;" vertex="1" parent="1">
          <mxGeometry x="600" y="590" width="90" height="30" as="geometry" />
        </mxCell>
        <mxCell id="6z1kEKujrXvAPlFFlpxd-30" style="edgeStyle=orthogonalEdgeStyle;rounded=0;orthogonalLoop=1;jettySize=auto;html=1;exitX=1;exitY=0.5;exitDx=0;exitDy=0;entryX=0.012;entryY=0.11;entryDx=0;entryDy=0;entryPerimeter=0;" edge="1" parent="1" source="6z1kEKujrXvAPlFFlpxd-24" target="6z1kEKujrXvAPlFFlpxd-27">
          <mxGeometry relative="1" as="geometry" />
        </mxCell>
        <mxCell id="6z1kEKujrXvAPlFFlpxd-32" value="" style="rounded=0;whiteSpace=wrap;html=1;" vertex="1" parent="1">
          <mxGeometry x="200" y="720" width="640" height="40" as="geometry" />
        </mxCell>
        <mxCell id="6z1kEKujrXvAPlFFlpxd-33" value="Offset" style="rounded=0;whiteSpace=wrap;html=1;fontSize=16;" vertex="1" parent="1">
          <mxGeometry x="720" y="720" width="120" height="40" as="geometry" />
        </mxCell>
        <mxCell id="6z1kEKujrXvAPlFFlpxd-36" value="PPN" style="rounded=0;whiteSpace=wrap;html=1;fontSize=16;" vertex="1" parent="1">
          <mxGeometry x="270" y="720" width="450" height="40" as="geometry" />
        </mxCell>
        <mxCell id="6z1kEKujrXvAPlFFlpxd-37" value="Unused" style="rounded=0;whiteSpace=wrap;html=1;fontSize=16;" vertex="1" parent="1">
          <mxGeometry x="200" y="720" width="70" height="40" as="geometry" />
        </mxCell>
        <mxCell id="6z1kEKujrXvAPlFFlpxd-41" style="edgeStyle=orthogonalEdgeStyle;rounded=0;orthogonalLoop=1;jettySize=auto;html=1;exitX=1;exitY=0.5;exitDx=0;exitDy=0;entryX=0;entryY=0.018;entryDx=0;entryDy=0;entryPerimeter=0;" edge="1" parent="1" source="6z1kEKujrXvAPlFFlpxd-18" target="6z1kEKujrXvAPlFFlpxd-15">
          <mxGeometry relative="1" as="geometry" />
        </mxCell>
      </root>
    </mxGraphModel>
  </diagram>
</mxfile>
